<?xml version="1.0" encoding="UTF-8"?>
<svg id="Layer_1" xmlns="http://www.w3.org/2000/svg" version="1.1" viewBox="0 0 500 500">
  <!-- Generator: Adobe Illustrator 29.0.0, SVG Export Plug-In . SVG Version: 2.1.0 Build 186)  -->
  <defs>
    <style>
      .st0 {
        fill: #3bbdee;
      }
    </style>
  </defs>
  <g id="Typography">
    <rect class="st0" x="450.89" y="223.64" width="2.13" height="55.66"/>
    <rect class="st0" x="145.39" y="221.76" width="2.13" height="55.66"/>
    <rect class="st0" x="51.43" y="222.83" width="2.13" height="55.66"/>
    <rect class="st0" x="355.06" y="214.43" width="2.13" height="64.86"/>
    <path class="st0" d="M22.69,279.06c-8.21-8.24-12.27-18.23-12.27-29.86s4.06-21.61,12.27-29.86c4.75-4.77,10.37-8.16,16.86-10.33,4.06-1.3,8.38-2,12.88-2h19.71c-.09,4.86-1.82,9.03-5.19,12.41-3.37,3.38-7.43,5.03-12.19,5.03h-2.33c-6.74,0-12.53,2.43-17.37,7.29-4.75,4.77-7.17,10.59-7.17,17.45s2.42,12.67,7.17,17.53c4.84,4.77,10.63,7.2,17.37,7.2s12.62-2.43,17.37-7.2c4.84-4.86,7.26-10.68,7.26-17.53v-64.57c0-4.77,1.73-8.94,5.1-12.32,3.37-3.38,7.52-5.12,12.27-5.12v82.02c0,11.63-4.15,21.61-12.36,29.86s-18.07,12.32-29.65,12.32-21.52-4.08-29.74-12.32Z"/>
    <path class="st0" d="M174.08,281.92c-1.3-2.43-1.9-5.12-1.9-7.98v-24.74c0-6.86-2.42-12.67-7.26-17.45-4.75-4.86-10.55-7.29-17.37-7.29s-12.62,2.43-17.37,7.29c-4.75,4.77-7.17,10.59-7.17,17.45s2.42,12.67,7.17,17.53c4.75,4.77,10.55,7.2,17.37,7.2h7.17c7.17,0,12.45,3.47,15.99,10.5.95,2.17,1.47,4.43,1.47,6.94h-24.64c-14,0-25.33-5.82-34.06-17.44-5.27-7.29-7.95-15.54-7.95-24.74,0-11.72,4.06-21.61,12.27-29.86s18.15-12.32,29.74-12.32h2.16c1.47.09,3.03.26,4.49.52,1.99.26,3.54.61,4.84,1.04,1.64.43,3.11.96,4.49,1.56,3.03,1.3,5.79,2.86,8.38,4.69l.26.17c1.82,1.3,3.46,2.78,5.1,4.34,8.21,8.24,12.27,18.14,12.27,29.86v42.18c-6.74,0-11.93-3.12-15.47-9.46Z"/>
    <path class="st0" d="M274.56,212.49c-.95,2.69-2.33,4.95-4.24,6.94-3.37,3.38-7.52,5.12-12.36,5.12h-4.06c-6.83,0-12.62,2.43-17.37,7.2-4.84,4.77-7.26,10.59-7.26,17.45v24.74c0,2.86-.61,5.55-1.9,7.98-3.54,6.34-8.73,9.46-15.47,9.46v-84.36c4.75,0,8.9,1.74,12.27,5.12,1.3,1.3,2.33,2.69,3.2,4.34,7.61-6.34,16.42-9.46,26.54-9.46h21.52c0,1.91-.26,3.73-.86,5.47Z"/>
    <path class="st0" d="M280.9,223.98c0-4.94,1.73-9.26,5.1-12.76,3.46-3.51,7.61-5.3,12.36-5.3v69.19c0,5.03-1.73,9.35-5.1,12.85-3.37,3.51-7.52,5.3-12.36,5.3v-69.28Z"/>
    <path class="st0" d="M315.06,327.49c0-6.77,3.11-11.98,9.42-15.54,2.51-1.3,5.19-2,8.04-2h24.55c6.83,0,12.62-2.43,17.37-7.2,4.84-4.77,7.26-10.59,7.26-17.45v-1.82c-4.49,3.21-9.51,5.55-15.04,6.86-3.2.78-6.4,1.13-9.59,1.13-4.75,0-9.16-.69-13.23-2.17-1.99-.61-4.49-1.74-7.61-3.39-3.37-2.17-5.96-4.08-7.78-5.81-4.24-4.08-7.35-8.42-9.42-12.85-2.33-5.03-3.63-10.24-3.89-15.71-.09-.78-.09-15.62-.09-44.52,6.74,0,11.93,3.21,15.47,9.55,1.3,2.43,1.99,5.12,1.99,7.98v26.47c.26,3.38,1.12,6.51,2.68,9.55,1.9,3.73,4.58,6.77,8.13,9.11,3.98,2.86,8.56,4.25,13.74,4.25,3.63,0,6.92-.69,9.94-2.08,1.82-.78,3.2-1.56,4.15-2.34,2.94-2,5.27-4.51,7-7.46,1.9-3.21,3.02-6.51,3.37-10.07.09-.87.17-9.98.17-27.43,0-2.86.61-5.55,1.9-7.98,3.54-6.34,8.73-9.55,15.47-9.55v78.29c0,11.63-4.06,21.52-12.27,29.77-8.21,8.25-18.07,12.41-29.74,12.41h-42.01Z"/>
    <path class="st0" d="M479.65,281.92c-1.3-2.43-1.9-5.12-1.9-7.98v-24.74c0-6.86-2.42-12.67-7.26-17.45-4.75-4.86-10.55-7.29-17.37-7.29s-12.62,2.43-17.38,7.29c-4.75,4.77-7.17,10.59-7.17,17.45s2.42,12.67,7.17,17.53c4.75,4.77,10.55,7.2,17.38,7.2h7.17c7.18,0,12.45,3.47,15.99,10.5.95,2.17,1.47,4.43,1.47,6.94h-24.63c-14,0-25.33-5.82-34.06-17.44-5.27-7.29-7.95-15.54-7.95-24.74,0-11.72,4.06-21.61,12.27-29.86,8.21-8.24,18.15-12.32,29.74-12.32h2.16c1.47.09,3.03.26,4.49.52,1.99.26,3.54.61,4.84,1.04,1.64.43,3.11.96,4.49,1.56,3.03,1.3,5.79,2.86,8.39,4.69l.26.17c1.82,1.3,3.46,2.78,5.1,4.34,8.21,8.24,12.27,18.14,12.27,29.86v42.18c-6.74,0-11.93-3.12-15.47-9.46Z"/>
    <rect class="st0" x="446.65" y="232.83" width="10.8" height="19.79" rx="1.98" ry="1.98"/>
    <rect class="st0" x="47.1" y="230.87" width="10.8" height="19.79" rx="1.98" ry="1.98"/>
    <rect class="st0" x="351.37" y="228.2" width="9.52" height="37.17" rx="1.86" ry="1.86"/>
    <path class="st0" d="M280.83,189.61c0-4.81,1.74-9.01,5.14-12.42,3.48-3.41,7.67-5.16,12.46-5.16v5.95c0,4.81-1.74,9.01-5.14,12.42-3.4,3.41-7.58,5.16-12.46,5.16v-5.95Z"/>
    <rect class="st0" x="141.07" y="243.79" width="10.8" height="19.79" rx="1.98" ry="1.98"/>
  </g>
</svg>