<?xml version="1.0" encoding="UTF-8"?>
<svg xmlns="http://www.w3.org/2000/svg" version="1.1" xmlns:xlink="http://www.w3.org/1999/xlink" viewBox="0 0 500 500">
  <!-- Generator: Adobe Illustrator 29.0.0, SVG Export Plug-In . SVG Version: 2.1.0 Build 186)  -->
  <defs>
    <style>
      .st0 {
        fill: url(#linear-gradient2);
      }

      .st1 {
        fill: url(#linear-gradient13);
      }

      .st1, .st2 {
        mix-blend-mode: multiply;
      }

      .st3 {
        fill: url(#linear-gradient1);
      }

      .st4 {
        fill: url(#linear-gradient10);
      }

      .st4, .st5 {
        mix-blend-mode: screen;
      }

      .st6 {
        fill: url(#linear-gradient8);
      }

      .st7 {
        fill: url(#linear-gradient11);
      }

      .st8 {
        fill: url(#radial-gradient);
      }

      .st9 {
        isolation: isolate;
      }

      .st10 {
        fill: url(#linear-gradient7);
      }

      .st11 {
        fill: url(#linear-gradient4);
      }

      .st12 {
        fill: #10b981;
      }

      .st13 {
        fill: url(#linear-gradient5);
      }

      .st14 {
        fill: url(#linear-gradient3);
      }

      .st2 {
        fill: url(#linear-gradient12);
      }

      .st15 {
        fill: url(#linear-gradient6);
      }

      .st16 {
        fill: url(#linear-gradient);
      }

      .st5 {
        fill: url(#linear-gradient9);
      }
    </style>
    <radialGradient id="radial-gradient" cx="686.7" cy="51" fx="686.7" fy="51" r="0" gradientUnits="userSpaceOnUse">
      <stop offset="0" stop-color="#fff"/>
      <stop offset="1" stop-color="#f2f2f2"/>
    </radialGradient>
    <linearGradient id="linear-gradient" x1="54.73" y1="275.95" x2="425.67" y2="275.95" gradientUnits="userSpaceOnUse">
      <stop offset="0" stop-color="#1b75bb"/>
      <stop offset="1" stop-color="#2b388f"/>
    </linearGradient>
    <linearGradient id="linear-gradient1" x1="198.75" y1="461.13" x2="198.75" y2="110.9" xlink:href="#linear-gradient"/>
    <linearGradient id="linear-gradient2" y1="275.42" x2="297.27" y2="275.42" xlink:href="#linear-gradient"/>
    <linearGradient id="linear-gradient3" x1="282.21" y1="131.79" x2="388.22" y2="131.79" gradientUnits="userSpaceOnUse">
      <stop offset="0" stop-color="#0b5985"/>
      <stop offset=".24" stop-color="#0b5c84"/>
      <stop offset=".43" stop-color="#0b6684"/>
      <stop offset=".62" stop-color="#0c7783"/>
      <stop offset=".79" stop-color="#0d9082"/>
      <stop offset=".96" stop-color="#0faf81"/>
      <stop offset="1" stop-color="#10b981"/>
    </linearGradient>
    <linearGradient id="linear-gradient4" x1="367.47" y1="197.95" x2="367.47" y2="43.68" gradientTransform="translate(20.38 -52.98) rotate(8.93)" gradientUnits="userSpaceOnUse">
      <stop offset="0" stop-color="#10b981"/>
      <stop offset=".24" stop-color="#0eb585"/>
      <stop offset=".5" stop-color="#0baa93"/>
      <stop offset=".78" stop-color="#0598a9"/>
      <stop offset="1" stop-color="#0085c1"/>
    </linearGradient>
    <linearGradient id="linear-gradient5" x1="364.24" y1="180.67" x2="364.24" y2="95.59" gradientTransform="translate(6.91 -23.6) rotate(4.02)" gradientUnits="userSpaceOnUse">
      <stop offset="0" stop-color="#006e58"/>
      <stop offset=".15" stop-color="#016c63"/>
      <stop offset=".87" stop-color="#066898"/>
    </linearGradient>
    <linearGradient id="linear-gradient6" x1="166.7" y1="286.15" x2="411.02" y2="286.15" gradientUnits="userSpaceOnUse">
      <stop offset="0" stop-color="#1b75bb"/>
      <stop offset="1" stop-color="#00559d"/>
    </linearGradient>
    <linearGradient id="linear-gradient7" x1="194.86" y1="338.59" x2="396.55" y2="338.59" gradientTransform="matrix(1,0,0,1,0,0)" xlink:href="#linear-gradient4"/>
    <linearGradient id="linear-gradient8" x1="83.03" y1="150.68" x2="301.45" y2="150.68" gradientTransform="matrix(1,0,0,1,0,0)" xlink:href="#linear-gradient4"/>
    <linearGradient id="linear-gradient9" x1="83.03" y1="148.86" x2="301.45" y2="148.86" gradientUnits="userSpaceOnUse">
      <stop offset="0" stop-color="#10b981"/>
      <stop offset=".14" stop-color="#11b281"/>
      <stop offset=".34" stop-color="#15a083"/>
      <stop offset=".57" stop-color="#1b8286"/>
      <stop offset=".82" stop-color="#23598b"/>
      <stop offset="1" stop-color="#2b388f"/>
    </linearGradient>
    <linearGradient id="linear-gradient10" x1="230.35" y1="121.19" x2="152.49" y2="195.92" gradientUnits="userSpaceOnUse">
      <stop offset=".49" stop-color="#10b981"/>
      <stop offset=".56" stop-color="#11b381"/>
      <stop offset=".66" stop-color="#14a283"/>
      <stop offset=".77" stop-color="#1a8686"/>
      <stop offset=".89" stop-color="#22608a"/>
      <stop offset="1" stop-color="#2b388f"/>
    </linearGradient>
    <linearGradient id="linear-gradient11" x1="166.7" y1="231.85" y2="231.85" xlink:href="#linear-gradient"/>
    <linearGradient id="linear-gradient12" x1="259.64" y1="207.26" x2="314.91" y2="207.26" xlink:href="#linear-gradient"/>
    <linearGradient id="linear-gradient13" x1="166.7" y1="233.84" x2="183.26" y2="233.84" xlink:href="#linear-gradient"/>
  </defs>
  <g class="st9">
    <g id="BACKGROUND">
      <path class="st8" d="M686.7,51"/>
    </g>
    <g id="OBJECTS">
      <g>
        <path class="st16" d="M422.97,304.17s0-.07.01-.1c6.06-40.04,1.26-68.87-8.38-89.65,0,0,0,0,0,0,0,0,0,0,0,0-22.2-47.83-70.07-52.82-70.07-52.82l4.2,17.59,24.67,32.72,11.7,57.9,6.26,41.56c-24.29,34.25-64.23,56.63-109.42,56.63-74.05,0-134.08-60.03-134.08-134.08s60.03-134.08,134.08-134.08c6.63,0,13.13.5,19.5,1.43-19.26-6.78-39.95-10.51-61.53-10.51-102.28,0-185.19,82.91-185.19,185.19s82.91,185.19,185.19,185.19c92.67,0,169.44-68.07,183.05-156.94h0s0-.01,0-.02Z"/>
        <path class="st3" d="M313.06,445.43c9.18-11.32,19.13-21.76,29.69-31.56-15.84,4.42-32.53,6.81-49.79,6.81-102.28,0-185.19-82.91-185.19-185.19,0-47.98,18.24-91.69,48.17-124.58-60.06,30.62-101.22,93-101.22,165.04,0,102.28,82.91,185.19,185.19,185.19,25.71,0,50.18-5.25,72.43-14.72.23-.33.46-.66.72-.98Z"/>
        <path class="st0" d="M92.47,284c0-102.28,82.91-185.19,185.19-185.19,6.63,0,13.16.39,19.61,1.08-18.06-5.89-37.32-9.13-57.35-9.13-102.28,0-185.19,82.91-185.19,185.19,0,95.65,72.51,174.34,165.56,184.14-74.19-24.15-127.83-93.84-127.83-176.09Z"/>
        <path class="st14" d="M347.23,88.86c15.91,15.32,29.77,33.09,36.71,54.38,1.92,5.91,2.56,12.13,2.57,18.32,0,5.58-1.6,11.82-.8,17.29.41,2.86,4.28,35.96,1.54,35.85-19.48-.78-38.95-4.44-56.9-12.05s-34.34-19.25-46.44-34.53c-.71-.9-1.44-1.87-1.64-3-.34-1.91.86-3.71,1.95-5.32,10.79-15.86,16.72-34.74,18.55-53.83,1.82-19.09-.35-38.42-4.78-57.08.24,1.02,4.66,3.22,5.61,3.89,2.23,1.58,4.44,3.18,6.64,4.8,4.39,3.25,8.71,6.6,12.96,10.04,8.31,6.73,16.34,13.83,24.04,21.25Z"/>
        <path class="st11" d="M371.44,80.44c14.07,14.47,25.65,31.69,31.21,51.25,6.33,22.25,5.08,47.43,4.9,70.35,0,.3,0,5.52-.25,5.5-19.44-1.42-38.79-5.72-56.48-13.91-17.69-8.19-33.69-20.37-45.28-36.04-.68-.93-1.37-1.91-1.54-3.05-.28-1.92.98-3.68,2.12-5.25,11.31-15.49,17.86-34.17,20.31-53.19,2.45-19.02.91-38.41-2.9-57.21.21,1.03,4.55,3.37,5.48,4.07,2.18,1.65,4.34,3.32,6.48,5.02,4.28,3.39,8.49,6.88,12.62,10.46,8.09,7,15.87,14.35,23.33,22.02Z"/>
        <path class="st13" d="M324.89,158.96c12.24-18.58,18.92-40.78,18.95-63.03,12.29,5.68,25.26,14.23,32.85,25.44-5.19-1.12-10.37-2.23-15.56-3.35,10.92,7.3,19.9,17.48,25.8,29.21-5.08-2.03-10.17-4.05-15.25-6.08,9.26,13.08,16.1,27.87,20.06,43.4-12.92-.9-25.99-1.31-38.31-5.3-12.32-3.98-22.02-9.11-28.55-20.29Z"/>
        <path class="st15" d="M337.37,418.62c14.94-17.93,20.77-43.08,15.23-65.75-5.54-22.67-22.3-42.31-43.82-51.33-30.08-12.61-65.71-4.74-95.86-17.18-23.83-9.83-42.2-33.8-46.21-59.26,19.03-3.83,37.41-8.89,55.34-16.33,7.59-3.15,12.88-10.12,16.98-17.24,4.1-7.12,6.32-16.09,13.3-20.41,23.04-14.27,51.02-19.72,77.83-16.57,21.97,2.58,46.05,10.13,61.56,26.71,17.96,19.21,19.09,48.93,19.32,73.75-3.74-2.54-7.48-5.08-11.23-7.62,6.58,31.86,4.28,65.51-6.58,96.18-10.86,30.67-30.68,54.44-55.85,75.05Z"/>
        <path class="st12" d="M202.62,252.57c16.8-4.15,32.37-10.03,46.79-19.73-11.64,12.91-29.58,19.77-46.79,19.73h0Z"/>
        <path class="st12" d="M344.53,200.77c25.1,6.1,48.73,21.49,61.51,44.34,1.78,3.25,3.35,6.61,4.7,10.03-14.32-25.92-39.11-43.57-66.2-54.37h0Z"/>
        <path class="st10" d="M372.22,340.47c.17-14.38-2.62-28.69-8.9-41.65,5.15,3.75,10.31,7.5,15.46,11.25-2.43-20.49-14.63-39.6-32.2-50.41,8.13.11,16.26.22,24.39.32-15.8-14.16-39.57-18.74-59.49-11.45,6.48-5.9,12.97-11.8,19.45-17.7-19.76,7.56-38.52,17.55-58.28,25.12-19.76,7.57-41.03,12.73-62.01,10.04-11.98-1.54-23.84-6.01-33.56-13.09,8.46,13.9,21.09,25.38,35.82,31.46,30.15,12.44,65.78,4.57,95.86,17.18,18.89,7.92,34.11,24.01,41.29,43.15-.14.08-.26.17-.4.25,4.83,16.87,8.94,58.97-49.31,101.41,9.14-3.15,17.96-6.99,26.38-11.47,47.68-31.62,45.5-94.4,45.5-94.4h-.03Z"/>
        <path class="st6" d="M160.52,177.05c21.4-45.61,67.71-77.21,121.43-77.21,6.63,0,13.13.5,19.5,1.43-19.26-6.78-39.95-10.51-61.53-10.51-60.29,0-113.84,28.83-147.65,73.44-4.06,14.02-7.17,28.31-9.24,42.76,19.4-22.55,42.33-42.07,67.7-57.62-11.9,17.98-15.11,39.88-17.88,61.27,7.55-12.43,16.92-23.75,27.67-33.56Z"/>
        <path class="st5" d="M301.45,101.27c-19.26-6.78-39.95-10.51-61.53-10.51-60.29,0-113.84,28.83-147.65,73.44-4.06,14.02-7.17,28.31-9.24,42.76,0,0,56.09-133.29,218.41-105.68Z"/>
        <path class="st4" d="M150.73,149.33c-11.9,17.98-15.11,39.88-17.88,61.27,7.55-12.43,16.92-23.75,27.67-33.56,21.4-45.61,67.71-77.21,121.43-77.21,6.63,0,13.13.5,19.5,1.43-88.65-16.44-150.71,48.06-150.71,48.06Z"/>
        <path class="st7" d="M414.6,209.77s0,0,0,0c0,0,0,0,0,0-22.2-47.83-70.07-52.82-70.07-52.82h0c-4.82-1.05-9.65-1.85-14.38-2.41-26.81-3.15-54.79,2.31-77.83,16.57-6.98,4.33-9.2,13.3-13.3,20.41-4.1,7.12-9.39,14.09-16.98,17.24-17.93,7.45-36.3,12.5-55.34,16.33,1.53,9.72,5.17,19.22,10.39,27.8h0c60.27,5.18,82.55-31.34,82.55-31.34l5.85-6.94,5.43-4.56,7.94-3.43,10,3.04,12.59-16.71s122.85,1.07,119.56,117.07c.74-3.47,1.41-6.95,1.96-10.49h0s0-.01,0-.02c0-.03,0-.07.01-.1,6.06-40.04,1.26-68.87-8.38-89.65Z"/>
        <path class="st2" d="M299.03,201.6c1.32,7.19-2.66,15.03-9.25,18.21-6.59,3.18-15.01.81-19.82-4.7-3.77,1.51-7.73,3.32-10.32,6.44,4.39-10.28,12.56-18.89,22.6-23.82,10.04-4.92,21.85-6.11,32.67-3.28-5.98.93-10.83,3.81-15.88,7.14Z"/>
        <path class="st1" d="M173.28,245.84c3.6-1.57,6.8-4.1,8.51-7.61,1.52-3.13,1.73-6.77,1.22-10.21-.31-2.11-.9-4.17-1.57-6.2-4.87,1.19-9.79,2.27-14.74,3.27,1.12,7.13,3.41,14.13,6.59,20.74Z"/>
        <path class="st12" d="M183.26,384.14c-44.64-30.62-72.98-83.39-74.29-137.47,0,0,.07-10.76.07-10.76l.71,10.71c4.43,53.51,31.62,103.96,73.51,137.51h0Z"/>
        <path class="st12" d="M225.06,459.85c-54.61-11.8-101.35-50.76-123.54-101.93,0,0-4.3-11.03-4.3-11.03l-3.52-11.29,4.25,11,4.88,10.71c23.85,49.57,69.32,87.51,122.22,102.54h0Z"/>
      </g>
    </g>
  </g>
</svg>